<svg version="1.1" xmlns="http://www.w3.org/2000/svg" viewBox="0 0 51.818514303634174 50.934745355214545" width="51.818514303634174" height="50.934745355214545">
  <!-- svg-source:excalidraw -->
  
  <defs>
    <style class="style-fonts">
      @font-face {
        font-family: "Virgil";
        src: url("https://excalidraw.com/Virgil.woff2");
      }
      @font-face {
        font-family: "Cascadia";
        src: url("https://excalidraw.com/Cascadia.woff2");
      }
      @font-face {
        font-family: "Assistant";
        src: url("https://excalidraw.com/Assistant-Regular.woff2");
      }
    </style>
    
  </defs>
  <rect x="0" y="0" width="51.818514303634174" height="50.934745355214545" fill="#ffffff"></rect><g stroke-linecap="round" transform="translate(10 10) rotate(0 15.909257151817087 15.467372677607273)"><path d="M-0.4 -0.64 L30.82 -0.68 L30.91 30.01 L-0.81 31.8" stroke="none" stroke-width="0" fill="#fff"></path><path d="M0 0 C9.64 0.21, 17.96 0.22, 31.82 0 M0 0 C9.91 -0.32, 20.33 0.35, 31.82 0 M31.82 0 C31.48 7.24, 31.89 15.44, 31.82 30.93 M31.82 0 C32.13 9.33, 31.61 18.3, 31.82 30.93 M31.82 30.93 C19.45 30.53, 6.36 31.8, 0 30.93 M31.82 30.93 C20.86 31.22, 10.99 31.06, 0 30.93 M0 30.93 C0.81 22.18, -0.22 13, 0 0 M0 30.93 C-0.16 22.99, -0.27 14.13, 0 0" stroke="#fa5252" stroke-width="2" fill="none"></path></g></svg>